<svg width="228" height="81" viewBox="0 0 228 81" fill="none" xmlns="http://www.w3.org/2000/svg">
<path d="M54.2264 29.1818V51H49.688V29.1818H54.2264ZM62.5281 51.3089C61.484 51.3089 60.5536 51.1278 59.7369 50.7656C58.9201 50.3963 58.2738 49.853 57.7979 49.1357C57.3292 48.4112 57.0948 47.5092 57.0948 46.4297C57.0948 45.5206 57.2617 44.7571 57.5955 44.1392C57.9293 43.5213 58.3839 43.0241 58.9592 42.6477C59.5344 42.2713 60.1879 41.9872 60.9194 41.7955C61.658 41.6037 62.4322 41.4688 63.2418 41.3906C64.1935 41.2912 64.9606 41.1989 65.543 41.1136C66.1254 41.0213 66.5479 40.8864 66.8107 40.7088C67.0735 40.5312 67.2049 40.2685 67.2049 39.9205V39.8565C67.2049 39.1818 66.9918 38.6598 66.5657 38.2905C66.1467 37.9212 65.5501 37.7365 64.7759 37.7365C63.9592 37.7365 63.3093 37.9176 62.8263 38.2798C62.3434 38.6349 62.0238 39.0824 61.8675 39.6222L57.6701 39.2812C57.8832 38.2869 58.3022 37.4276 58.9272 36.7031C59.5522 35.9716 60.3583 35.4105 61.3455 35.0199C62.3398 34.6222 63.4904 34.4233 64.7972 34.4233C65.7063 34.4233 66.5763 34.5298 67.4073 34.7429C68.2454 34.956 68.9876 35.2862 69.6339 35.7337C70.2873 36.1811 70.8022 36.7564 71.1786 37.4595C71.555 38.1555 71.7433 38.9901 71.7433 39.9631V51H67.4393V48.7308H67.3114C67.0487 49.2422 66.6971 49.6932 66.2567 50.0838C65.8164 50.4673 65.2873 50.7692 64.6694 50.9893C64.0515 51.2024 63.3377 51.3089 62.5281 51.3089ZM63.8278 48.1768C64.4954 48.1768 65.0849 48.0455 65.5962 47.7827C66.1076 47.5128 66.5089 47.1506 66.8001 46.696C67.0913 46.2415 67.2369 45.7266 67.2369 45.1513V43.4148C67.0948 43.5071 66.8995 43.5923 66.6509 43.6705C66.4094 43.7415 66.136 43.8089 65.8306 43.8729C65.5252 43.9297 65.2198 43.983 64.9144 44.0327C64.609 44.0753 64.332 44.1143 64.0835 44.1499C63.5508 44.228 63.0856 44.3523 62.6879 44.5227C62.2901 44.6932 61.9812 44.924 61.761 45.2152C61.5408 45.4993 61.4308 45.8544 61.4308 46.2805C61.4308 46.8984 61.6545 47.3707 62.1019 47.6974C62.5565 48.017 63.1317 48.1768 63.8278 48.1768ZM75.2642 51V34.6364H79.5895V37.5234H79.7812C80.1222 36.5646 80.6903 35.8082 81.4858 35.2543C82.2812 34.7003 83.233 34.4233 84.3409 34.4233C85.4631 34.4233 86.4183 34.7038 87.2067 35.2649C87.995 35.8189 88.5206 36.5717 88.7834 37.5234H88.9538C89.2876 36.5859 89.8913 35.8366 90.7649 35.2756C91.6456 34.7074 92.6861 34.4233 93.8864 34.4233C95.4134 34.4233 96.6527 34.9098 97.6044 35.8828C98.5632 36.8487 99.0426 38.2195 99.0426 39.995V51H94.5149V40.8899C94.5149 39.9808 94.2734 39.299 93.7905 38.8445C93.3075 38.3899 92.7038 38.1626 91.9794 38.1626C91.1555 38.1626 90.5128 38.4254 90.0511 38.951C89.5895 39.4695 89.3587 40.1548 89.3587 41.0071V51H84.9588V40.794C84.9588 39.9915 84.728 39.3523 84.2663 38.8764C83.8118 38.4006 83.2116 38.1626 82.4659 38.1626C81.9616 38.1626 81.5071 38.2905 81.1023 38.5462C80.7045 38.7947 80.3885 39.1463 80.1541 39.6009C79.9197 40.0483 79.8026 40.5739 79.8026 41.1776V51H75.2642ZM107.294 51.3089C106.25 51.3089 105.319 51.1278 104.502 50.7656C103.686 50.3963 103.039 49.853 102.564 49.1357C102.095 48.4112 101.86 47.5092 101.86 46.4297C101.86 45.5206 102.027 44.7571 102.361 44.1392C102.695 43.5213 103.15 43.0241 103.725 42.6477C104.3 42.2713 104.953 41.9872 105.685 41.7955C106.424 41.6037 107.198 41.4688 108.007 41.3906C108.959 41.2912 109.726 41.1989 110.309 41.1136C110.891 41.0213 111.314 40.8864 111.576 40.7088C111.839 40.5312 111.971 40.2685 111.971 39.9205V39.8565C111.971 39.1818 111.757 38.6598 111.331 38.2905C110.912 37.9212 110.316 37.7365 109.542 37.7365C108.725 37.7365 108.075 37.9176 107.592 38.2798C107.109 38.6349 106.789 39.0824 106.633 39.6222L102.436 39.2812C102.649 38.2869 103.068 37.4276 103.693 36.7031C104.318 35.9716 105.124 35.4105 106.111 35.0199C107.105 34.6222 108.256 34.4233 109.563 34.4233C110.472 34.4233 111.342 34.5298 112.173 34.7429C113.011 34.956 113.753 35.2862 114.4 35.7337C115.053 36.1811 115.568 36.7564 115.944 37.4595C116.321 38.1555 116.509 38.9901 116.509 39.9631V51H112.205V48.7308H112.077C111.814 49.2422 111.463 49.6932 111.022 50.0838C110.582 50.4673 110.053 50.7692 109.435 50.9893C108.817 51.2024 108.103 51.3089 107.294 51.3089ZM108.593 48.1768C109.261 48.1768 109.85 48.0455 110.362 47.7827C110.873 47.5128 111.275 47.1506 111.566 46.696C111.857 46.2415 112.002 45.7266 112.002 45.1513V43.4148C111.86 43.5071 111.665 43.5923 111.417 43.6705C111.175 43.7415 110.902 43.8089 110.596 43.8729C110.291 43.9297 109.985 43.983 109.68 44.0327C109.375 44.0753 109.098 44.1143 108.849 44.1499C108.316 44.228 107.851 44.3523 107.453 44.5227C107.056 44.6932 106.747 44.924 106.527 45.2152C106.306 45.4993 106.196 45.8544 106.196 46.2805C106.196 46.8984 106.42 47.3707 106.868 47.6974C107.322 48.017 107.897 48.1768 108.593 48.1768ZM127.423 51.3196C125.747 51.3196 124.305 50.9645 123.098 50.2543C121.898 49.5369 120.974 48.5426 120.328 47.2713C119.689 46 119.369 44.5369 119.369 42.8821C119.369 41.206 119.692 39.7358 120.339 38.4716C120.992 37.2003 121.919 36.2095 123.119 35.4993C124.32 34.782 125.747 34.4233 127.402 34.4233C128.83 34.4233 130.08 34.6825 131.152 35.201C132.224 35.7195 133.073 36.4474 133.698 37.3849C134.323 38.3224 134.668 39.4233 134.732 40.6875H130.449C130.328 39.8707 130.009 39.2138 129.49 38.7166C128.979 38.2124 128.308 37.9602 127.477 37.9602C126.773 37.9602 126.159 38.152 125.634 38.5355C125.115 38.9119 124.71 39.4624 124.419 40.1868C124.128 40.9112 123.982 41.7884 123.982 42.8182C123.982 43.8622 124.124 44.75 124.408 45.4815C124.7 46.2131 125.108 46.7706 125.634 47.1541C126.159 47.5376 126.773 47.7294 127.477 47.7294C127.995 47.7294 128.46 47.6229 128.872 47.4098C129.291 47.1967 129.636 46.8878 129.906 46.483C130.183 46.071 130.364 45.5774 130.449 45.0021H134.732C134.661 46.2521 134.32 47.353 133.709 48.3047C133.105 49.2493 132.271 49.9879 131.205 50.5206C130.14 51.0533 128.879 51.3196 127.423 51.3196ZM142.176 41.5398V51H137.637V29.1818H142.048V37.5234H142.24C142.609 36.5575 143.205 35.8011 144.029 35.2543C144.853 34.7003 145.887 34.4233 147.129 34.4233C148.266 34.4233 149.257 34.6719 150.102 35.169C150.954 35.6591 151.615 36.3658 152.083 37.2891C152.559 38.2053 152.794 39.3026 152.786 40.581V51H148.248V41.3906C148.255 40.3821 147.999 39.5973 147.481 39.0362C146.97 38.4751 146.252 38.1946 145.329 38.1946C144.711 38.1946 144.164 38.326 143.688 38.5888C143.22 38.8516 142.85 39.2351 142.58 39.7393C142.318 40.2365 142.183 40.8366 142.176 41.5398ZM161.024 51.3089C159.98 51.3089 159.05 51.1278 158.233 50.7656C157.416 50.3963 156.77 49.853 156.294 49.1357C155.825 48.4112 155.591 47.5092 155.591 46.4297C155.591 45.5206 155.758 44.7571 156.092 44.1392C156.425 43.5213 156.88 43.0241 157.455 42.6477C158.031 42.2713 158.684 41.9872 159.415 41.7955C160.154 41.6037 160.928 41.4688 161.738 41.3906C162.69 41.2912 163.457 41.1989 164.039 41.1136C164.621 41.0213 165.044 40.8864 165.307 40.7088C165.57 40.5312 165.701 40.2685 165.701 39.9205V39.8565C165.701 39.1818 165.488 38.6598 165.062 38.2905C164.643 37.9212 164.046 37.7365 163.272 37.7365C162.455 37.7365 161.805 37.9176 161.322 38.2798C160.839 38.6349 160.52 39.0824 160.364 39.6222L156.166 39.2812C156.379 38.2869 156.798 37.4276 157.423 36.7031C158.048 35.9716 158.854 35.4105 159.842 35.0199C160.836 34.6222 161.987 34.4233 163.293 34.4233C164.202 34.4233 165.072 34.5298 165.903 34.7429C166.741 34.956 167.484 35.2862 168.13 35.7337C168.783 36.1811 169.298 36.7564 169.675 37.4595C170.051 38.1555 170.239 38.9901 170.239 39.9631V51H165.935V48.7308H165.808C165.545 49.2422 165.193 49.6932 164.753 50.0838C164.312 50.4673 163.783 50.7692 163.165 50.9893C162.548 51.2024 161.834 51.3089 161.024 51.3089ZM162.324 48.1768C162.991 48.1768 163.581 48.0455 164.092 47.7827C164.604 47.5128 165.005 47.1506 165.296 46.696C165.587 46.2415 165.733 45.7266 165.733 45.1513V43.4148C165.591 43.5071 165.396 43.5923 165.147 43.6705C164.906 43.7415 164.632 43.8089 164.327 43.8729C164.021 43.9297 163.716 43.983 163.411 44.0327C163.105 44.0753 162.828 44.1143 162.58 44.1499C162.047 44.228 161.582 44.3523 161.184 44.5227C160.786 44.6932 160.477 44.924 160.257 45.2152C160.037 45.4993 159.927 45.8544 159.927 46.2805C159.927 46.8984 160.151 47.3707 160.598 47.6974C161.053 48.017 161.628 48.1768 162.324 48.1768ZM173.76 51V34.6364H178.299V51H173.76ZM176.04 32.527C175.365 32.527 174.787 32.3033 174.304 31.8558C173.828 31.4013 173.59 30.858 173.59 30.2259C173.59 29.6009 173.828 29.0646 174.304 28.6172C174.787 28.1626 175.365 27.9354 176.04 27.9354C176.715 27.9354 177.29 28.1626 177.766 28.6172C178.249 29.0646 178.49 29.6009 178.49 30.2259C178.49 30.858 178.249 31.4013 177.766 31.8558C177.29 32.3033 176.715 32.527 176.04 32.527Z" fill="#24B1D6"/>
</svg>
